<svg width="732" height="594" viewBox="0 0 732 594" fill="none" xmlns="http://www.w3.org/2000/svg">
<path d="M447.516 75.9389C447.762 85.0867 447.069 92.487 445.44 98.14C437.366 126.27 419.821 145.455 392.806 155.694C390.067 156.742 390.325 158.986 390.325 161.433C390.239 192.604 390.233 225.645 390.306 260.556C390.306 260.749 390.261 260.94 390.174 261.113C390.087 261.285 389.96 261.435 389.804 261.55C389.649 261.664 389.468 261.74 389.278 261.772C389.087 261.804 388.892 261.791 388.707 261.733C373.178 256.859 358.751 257.484 343.443 261.255C343.317 261.286 343.186 261.288 343.06 261.262C342.934 261.236 342.816 261.181 342.715 261.103C342.613 261.025 342.532 260.925 342.477 260.811C342.421 260.697 342.393 260.572 342.395 260.445L341.88 158.379C341.875 158.087 341.78 157.804 341.609 157.568C341.439 157.331 341.2 157.152 340.925 157.055C323.013 150.997 308.512 140.292 297.424 124.94C284.119 104.78 278.973 77.0609 288.217 53.9033C289.173 51.5122 290.857 46.8463 293.271 39.9058C300.683 29.4459 309.493 20.8684 319.698 14.1731C344.196 -1.88455 374.85 -4.69877 401.259 7.7905C410.693 12.254 419.037 18.3178 426.29 25.9818C434.658 34.8353 440.655 45.3687 444.282 57.5821C445.262 60.8807 446.34 66.9996 447.516 75.9389Z" fill="black"/>
<path d="M430.59 314.781C442.708 330.709 448.472 348.735 447.884 368.858C447.798 371.556 447.7 374.223 447.59 376.859C447.467 379.508 447.1 382.052 446.487 384.492C440.815 407.068 428.838 424.48 410.559 436.73C399.581 444.088 388.223 448.392 376.486 449.643C346.199 452.868 321.408 442.757 302.111 419.312C294.711 410.323 289.675 400.446 287.004 389.679C278.164 355.228 289.761 316.546 320.819 297.84C332.912 290.556 345.507 286.436 358.604 285.48C381.895 283.787 402.344 289.949 419.95 303.965C423.938 307.11 427.172 310.991 430.59 314.781Z" fill="black"/>
<path d="M625.249 589.305C624.71 589.367 624.152 589.281 623.577 589.048C600.947 580.133 585.204 564.597 576.345 542.438C572.462 532.739 570.177 520.667 569.49 506.221C569.454 505.645 569.221 505.173 568.792 504.805C566.207 502.586 563.469 500.519 560.577 498.606C544.245 487.779 527.074 476.773 509.064 465.59C490.686 454.186 473.025 442.046 454.996 430.716C454.408 430.36 454.323 429.906 454.739 429.354C463.585 417.497 469.319 404.088 471.941 389.128C471.987 388.87 472.092 388.627 472.249 388.418C472.406 388.209 472.609 388.041 472.842 387.926C473.075 387.811 473.332 387.753 473.59 387.758C473.849 387.762 474.102 387.828 474.33 387.95C479.341 390.636 484.309 393.524 489.234 396.614C511.423 410.495 534.407 425.05 558.188 440.28C571.53 448.827 581.111 455.296 586.931 459.686C587.409 460.053 587.856 460.01 588.273 459.557C591.397 456.037 595.679 452.396 601.119 448.631C616.703 437.791 632.864 432.297 649.6 432.15C662.942 432.04 674.765 434.407 685.069 439.25C701.094 446.767 713.273 457.785 721.604 472.304C726.787 481.341 730.003 492.604 731.252 506.093C731.51 508.803 731.485 513.469 731.179 520.09C730.934 525.4 730.309 529.992 729.304 533.867C722.541 559.637 704.072 578.214 679.831 588.588C673.914 591.114 668.363 592.641 663.181 593.168C650.684 594.456 638.316 594.364 626.205 590.244C625.923 590.145 625.757 589.961 625.708 589.692C625.672 589.41 625.518 589.281 625.249 589.305Z" fill="black"/>
<path d="M41.2552 440.85C57.0357 432.266 74.5375 429.311 93.7608 431.984C111.428 434.278 126.731 441.617 139.669 454.002C141.029 455.301 142.144 456.626 143.013 457.975C143.24 458.336 143.538 458.648 143.889 458.89C144.24 459.132 144.637 459.3 145.056 459.382C145.474 459.465 145.905 459.461 146.322 459.371C146.739 459.281 147.132 459.106 147.479 458.858C153.103 454.848 158.457 451.181 163.542 447.858C187.69 432.089 215.202 414.682 246.077 395.639C250.365 392.99 254.592 390.525 258.757 388.244C258.951 388.139 259.167 388.081 259.388 388.076C259.609 388.071 259.827 388.12 260.025 388.217C260.223 388.314 260.395 388.458 260.526 388.635C260.657 388.813 260.744 389.02 260.779 389.238C263.168 404.21 268.877 417.484 277.907 429.06C278.201 429.452 278.152 429.789 277.76 430.071C269.453 436.166 261.33 441.782 253.391 446.92C222.553 466.92 193.718 485.737 166.886 503.37C164.853 504.707 163.793 506.607 163.707 509.072C162.751 536.197 152.864 557.57 134.045 573.192C124.133 581.42 113.339 587.19 101.663 590.501C80.6757 596.46 60.503 594.038 41.145 583.235C22.1974 572.659 8.04641 556.049 2.90061 534.529C-2.03691 513.879 -0.670815 494.67 6.99888 476.902C13.3086 462.285 24.7274 450.268 41.2552 440.85Z" fill="black"/>
</svg>
